<svg width="123" height="24" viewBox="0 0 123 24" fill="none" xmlns="http://www.w3.org/2000/svg">
<path d="M14.268 4.5099L7.134 9.01981L14.268 13.5297L7.134 18.0396L0 13.5053L7.134 8.99543L0 4.5099L7.134 0L14.268 4.5099ZM7.0971 19.4901L14.2311 14.9802L21.3651 19.4901L14.2311 24L7.0971 19.4901ZM14.268 13.5053L21.402 8.99543L14.268 4.5099L21.3651 0L28.4991 4.5099L21.3651 9.01981L28.4991 13.5297L21.3651 18.0396L14.268 13.5053Z" fill="#B7BEC9"/>
<path d="M34.0956 4.50994H39.8643C43.542 4.50994 46.5801 6.61863 46.5801 11.4333V12.4449C46.5801 17.2961 43.7388 19.478 39.975 19.478H34.0956V4.50994ZM37.3182 7.22808V16.7476H39.7905C41.8815 16.7476 43.2837 15.3947 43.2837 12.384V11.5917C43.2837 8.58105 41.8077 7.22808 39.6798 7.22808H37.3182ZM48.2898 7.37434H50.8728L51.291 10.19C51.783 8.27632 53.0376 7.25245 55.3131 7.25245H56.1126V10.4825H54.7842C52.1643 10.4825 51.5247 11.3845 51.5247 13.9442V19.5145H48.339V7.37434H48.2898ZM56.7522 13.6882V13.3469C56.7522 9.28801 59.3721 7.06962 62.9391 7.06962C66.5798 7.06962 69.1259 9.28801 69.1259 13.3469V13.6882C69.1259 17.674 66.6537 19.8192 62.9391 19.8192C58.9908 19.7827 56.7522 17.6862 56.7522 13.6882ZM65.8664 13.6516V13.3469C65.8664 11.092 64.7225 9.739 62.9022 9.739C61.1187 9.739 59.9379 10.9823 59.9379 13.3469V13.6516C59.9379 15.8335 61.0818 17.0767 62.9022 17.0767C64.7225 17.0402 65.8664 15.8335 65.8664 13.6516ZM70.7987 7.37434H73.4555L73.763 9.66586C74.4026 8.13006 75.7679 7.06962 77.7851 7.06962C80.897 7.06962 82.9511 9.288 82.9511 13.3957V13.737C82.9511 17.7227 80.6756 19.8314 77.7851 19.8314C75.854 19.8314 74.5256 18.966 73.8737 17.5765V23.7075H70.7618L70.7987 7.37434ZM79.7162 13.6516V13.3835C79.7162 10.9701 78.4616 9.77556 76.7888 9.77556C75.0053 9.77556 73.8245 11.1285 73.8245 13.3835V13.6151C73.8245 15.7603 74.9684 17.1133 76.7519 17.1133C78.5846 17.0767 79.7162 15.9188 79.7162 13.6516ZM87.662 17.2718L87.3914 19.4901H84.6608V3.31543H87.7727V9.51959C88.4615 7.93503 89.8268 7.06962 91.7579 7.06962C94.6853 7.10619 96.8501 9.10517 96.8501 13.1275V13.5054C96.8501 17.5277 94.796 19.8314 91.6841 19.8314C89.63 19.7827 88.3016 18.8441 87.662 17.2718ZM93.5783 13.5054V13.2007C93.5783 10.9823 92.3606 9.739 90.6509 9.739C88.9043 9.739 87.6866 11.1285 87.6866 13.2372V13.5054C87.6866 15.7603 88.8674 17.0767 90.614 17.0767C92.4836 17.0767 93.5783 15.9188 93.5783 13.5054ZM98.2154 13.6882V13.3469C98.2154 9.28801 100.835 7.06962 104.402 7.06962C108.043 7.06962 110.589 9.28801 110.589 13.3469V13.6882C110.589 17.674 108.08 19.8192 104.402 19.8192C100.454 19.7827 98.2154 17.6862 98.2154 13.6882ZM107.354 13.6516V13.3469C107.354 11.092 106.21 9.739 104.39 9.739C102.607 9.739 101.426 10.9823 101.426 13.3469V13.6516C101.426 15.8335 102.57 17.0767 104.39 17.0767C106.223 17.0402 107.354 15.8335 107.354 13.6516ZM114.759 13.2007L110.466 7.37434H114.144L116.616 11.0188L119.125 7.37434H122.766L118.412 13.1641L123 19.4901H119.396L116.592 15.4678L113.861 19.4901H110.097L114.759 13.2007Z" fill="#B7BEC9"/>
</svg>
