<svg width="47" height="43" viewBox="0 0 47 43" fill="none" xmlns="http://www.w3.org/2000/svg">
    <g id="chat">
        <g id="Group">
            <path id="Vector" d="M35.2 12.7398V29.6498C35.2 31.8298 33.44 33.5898 31.26 33.5898L17.6 33.6598L9.6 42.4598V33.6598H3.94C1.77 33.6598 0 31.8898 0 29.7098V12.7998C0 10.6198 1.77 8.8498 3.94 8.8498L31.26 8.7998C33.43 8.7998 35.2 10.5698 35.2 12.7398Z" fill="#F2AB27" />
            <path id="Vector_2" d="M17.6 17.6H7.19999C6.75999 17.6 6.39999 17.24 6.39999 16.8C6.39999 16.36 6.75999 16 7.19999 16H17.6C18.04 16 18.4 16.36 18.4 16.8C18.4 17.24 18.04 17.6 17.6 17.6Z" fill="white" />
            <path id="Vector_3" d="M28 22.3998H7.19999C6.75999 22.3998 6.39999 22.0398 6.39999 21.5998C6.39999 21.1598 6.75999 20.7998 7.19999 20.7998H28C28.44 20.7998 28.8 21.1598 28.8 21.5998C28.8 22.0398 28.44 22.3998 28 22.3998Z" fill="white" />
            <path id="Vector_4" d="M28 27.2001H7.19999C6.75999 27.2001 6.39999 26.8401 6.39999 26.4001C6.39999 25.9601 6.75999 25.6001 7.19999 25.6001H28C28.44 25.6001 28.8 25.9501 28.8 26.4001C28.8 26.8401 28.44 27.2001 28 27.2001Z" fill="white" />
            <path id="Vector_5" opacity="0.5" d="M42.46 0.05L15.14 0C12.96 0 11.19 1.77 11.19 3.94V8.84L31.26 8.8C33.44 8.8 35.2 10.56 35.2 12.74V27.5L40.8 33.66V24.86H42.46C44.64 24.86 46.4 23.1 46.4 20.92V4C46.4 1.82 44.63 0.05 42.46 0.05Z" fill="#F2AB27" />
        </g>
    </g>
</svg>