<svg width="51" height="45" viewBox="0 0 51 45" fill="none" xmlns="http://www.w3.org/2000/svg">
<g id="community">
<path id="Vector" opacity="0.5" d="M30.99 0.440387C30.99 0.440387 44.418 -0.430793 44.418 13.549C44.418 22.863 46.878 26.1197 48.522 27.2599C49.122 27.675 49.044 28.5637 48.414 28.9321C46.602 29.9903 43.332 31.3994 39.3 30.9024C39.036 30.8674 38.91 31.2006 39.132 31.341L48.51 36.6265C50.052 37.4977 51 39.0997 51 40.8362V41.9354C51 43.1516 49.992 44.1339 48.744 44.1339H35.388L21.102 38.135L24.492 1.66238C27.774 0.235747 30.99 0.440387 30.99 0.440387Z" fill="#F2AB27"/>
<path id="Vector_2" d="M3.55199 14.612C3.99599 14.2846 4.28399 13.811 4.28999 13.2731C4.31999 10.227 5.33399 0.439453 17.226 0.439453C17.388 0.439453 17.538 0.4453 17.694 0.451147C17.85 0.4453 18 0.439453 18.162 0.439453C30.048 0.439453 31.068 10.2153 31.092 13.2673C31.098 13.7993 31.368 14.2788 31.806 14.5945C33.066 15.5066 33.72 17.0501 33.126 18.4651C32.226 20.6108 30.396 22.4292 29.496 23.2302C29.16 23.5284 28.98 23.9552 28.962 24.3937C28.776 29.3342 26.676 31.1116 25.35 31.7548C24.558 32.1348 24.03 32.8423 24.03 33.655C24.03 34.6723 25.14 35.4441 26.016 35.9937L31.476 37.1806C33.756 37.6776 35.382 39.6479 35.382 41.9282V44.1265H9.66599L6.53399 25.7911C6.47999 25.3526 6.43798 24.8965 6.41999 24.3995C6.40199 23.9552 6.22199 23.5342 5.88598 23.236C4.98599 22.4292 3.13199 20.5933 2.23799 18.43C1.66199 17.0209 2.31598 15.5241 3.55199 14.612Z" fill="#E09305"/>
<path id="Vector_3" d="M0 34.702C0 39.9057 4.332 44.1271 9.672 44.1271C15.012 44.1271 19.344 39.9057 19.344 34.702C19.344 29.4983 15.012 25.2769 9.672 25.2769C4.332 25.2769 0 29.4983 0 34.702Z" fill="white"/>
<path id="Vector_4" d="M9.67201 40.7016C10.158 40.7016 10.554 40.3157 10.554 39.8421V29.5631C10.554 29.0895 10.158 28.7095 9.67201 28.7095C9.186 28.7095 8.78998 29.0895 8.78998 29.5631V39.848C8.79598 40.3157 9.186 40.7016 9.67201 40.7016Z" fill="#F2AB27"/>
<path id="Vector_5" d="M4.39799 35.5615H14.946C15.432 35.5615 15.828 35.1757 15.828 34.708C15.828 34.2345 15.432 33.8486 14.946 33.8486H4.39199C3.90599 33.8486 3.50999 34.2345 3.50999 34.708C3.51599 35.1757 3.91199 35.5615 4.39799 35.5615Z" fill="#F2AB27"/>
</g>
</svg>
