<svg width="45" height="45" viewBox="0 0 45 45" fill="none" xmlns="http://www.w3.org/2000/svg">
    <path fill-rule="evenodd" clip-rule="evenodd" d="M41.1186 11.974C39.1959 8.59717 36.5877 5.92296 33.2934 3.95201C29.9982 1.9805 26.4012 0.995573 22.4998 0.995573C18.5986 0.995573 15.0005 1.98102 11.7062 3.95201C8.41152 5.92296 5.8032 8.59717 3.88039 11.974C1.95776 15.3514 0.996466 19.0396 0.996466 23.0385C0.996466 27.8407 2.36346 32.1606 5.09834 35.9966C7.8328 39.8331 11.3654 42.488 15.6958 43.9606C16.1998 44.0563 16.573 43.9891 16.8157 43.7605C17.0583 43.531 17.1796 43.2434 17.1796 42.8993C17.1796 42.8417 17.1748 42.3251 17.1656 41.3498C17.156 40.3735 17.1514 39.5218 17.1514 38.7955L16.5075 38.91C16.0968 38.9864 15.5789 39.0197 14.9534 39.0106C14.3283 39.0014 13.6795 38.9342 13.0076 38.8095C12.3354 38.6853 11.7103 38.3987 11.1315 37.9493C10.5532 37.4993 10.1426 36.9106 9.89996 36.1837L9.61979 35.5229C9.43325 35.0837 9.1395 34.5955 8.73802 34.06C8.33669 33.524 7.93075 33.1606 7.52016 32.9692L7.32412 32.8256C7.19365 32.7299 7.07234 32.6149 6.9602 32.481C6.8483 32.3477 6.7644 32.2127 6.70833 32.0788C6.65235 31.9455 6.69884 31.8348 6.8483 31.7488C6.99785 31.6622 7.26815 31.6197 7.66036 31.6197L8.22008 31.7063C8.5934 31.7821 9.05527 32.0122 9.60607 32.3944C10.1566 32.7773 10.6093 33.2746 10.9639 33.8864C11.3935 34.6713 11.911 35.2692 12.5179 35.681C13.1244 36.0923 13.7359 36.2976 14.3517 36.2976C14.9675 36.2976 15.4994 36.2498 15.9476 36.1547C16.3953 36.0584 16.8154 35.9149 17.2075 35.724C17.3755 34.4412 17.8329 33.4563 18.5793 32.7676C17.5154 32.653 16.5589 32.4799 15.7093 32.2509C14.8603 32.0208 13.9828 31.6482 13.0778 31.1305C12.1722 30.6144 11.4209 29.9735 10.8236 29.2079C10.2265 28.4423 9.7363 27.438 9.35396 26.1944C8.97128 24.9509 8.78004 23.5154 8.78004 21.8891C8.78004 19.5735 9.51747 17.6031 10.9922 15.9762C10.3013 14.2353 10.3667 12.2843 11.188 10.1219C11.7293 9.94931 12.532 10.0789 13.5959 10.5095C14.6599 10.9396 15.439 11.309 15.9339 11.6144C16.4287 11.9197 16.8252 12.1789 17.1239 12.3896C18.8601 11.8918 20.6519 11.6429 22.4998 11.6429C24.3476 11.6429 26.1397 11.8918 27.8765 12.3896L28.9403 11.7004C29.6679 11.2412 30.527 10.8203 31.5157 10.4369C32.505 10.0547 33.2616 9.94931 33.784 10.1219C34.624 12.2843 34.6986 14.2358 34.0079 15.9767C35.4825 17.6036 36.2199 19.5746 36.2199 21.8896C36.2199 23.5165 36.0282 24.9557 35.6459 26.2084C35.263 27.4627 34.769 28.4665 34.1623 29.2224C33.5555 29.9789 32.7993 30.6149 31.8942 31.131C30.9888 31.6482 30.1115 32.0208 29.2621 32.2509C28.4127 32.4804 27.4562 32.6536 26.3924 32.7676C27.3629 33.6288 27.8483 34.9869 27.8483 36.8434V42.8988C27.8483 43.2428 27.965 43.5299 28.1983 43.7589C28.4315 43.9891 28.8 44.0557 29.3041 43.96C33.6347 42.4869 37.1672 39.832 39.9017 35.995C42.6363 32.1595 44.0035 27.8401 44.0035 23.0369C44.0028 19.0391 43.0409 15.3514 41.1186 11.974Z" fill="#EA3A60" />
</svg>