<svg width="44" height="44" viewBox="0 0 44 44" fill="none" xmlns="http://www.w3.org/2000/svg">
<path id="Vector" fill-rule="evenodd" clip-rule="evenodd" d="M40.1221 10.9784C38.1994 7.6016 35.5912 4.92739 32.2969 2.95644C29.0017 0.984927 25.4047 0 21.5033 0C17.6021 0 14.004 0.985447 10.7097 2.95644C7.41505 4.92739 4.80673 7.6016 2.88392 10.9784C0.961294 14.3558 0 18.044 0 22.0429C0 26.8451 1.36699 31.165 4.10187 35.001C6.83633 38.8375 10.3689 41.4924 14.6993 42.965C15.2033 43.0607 15.5765 42.9935 15.8192 42.7649C16.0618 42.5354 16.1831 42.2478 16.1831 41.9037C16.1831 41.8461 16.1783 41.3295 16.1691 40.3542C16.1595 39.3779 16.1549 38.5262 16.1549 37.7999L15.511 37.9144C15.1003 37.9908 14.5824 38.0241 13.9569 38.015C13.3318 38.0058 12.683 37.9386 12.0111 37.8139C11.3389 37.6897 10.7138 37.4031 10.135 36.9537C9.55673 36.5037 9.14613 35.915 8.90349 35.1881L8.62332 34.5273C8.43678 34.0881 8.14303 33.5999 7.74155 33.0644C7.34022 32.5284 6.93428 32.165 6.52369 31.9736L6.32765 31.83C6.19718 31.7343 6.07587 31.6193 5.96373 31.4854C5.85183 31.3521 5.76793 31.2171 5.71186 31.0832C5.65588 30.9499 5.70237 30.8392 5.85183 30.7532C6.00138 30.6666 6.27168 30.6241 6.66389 30.6241L7.22361 30.7107C7.59693 30.7865 8.0588 31.0166 8.6096 31.3988C9.16013 31.7817 9.61283 32.279 9.96743 32.8908C10.397 33.6757 10.9145 34.2736 11.5214 34.6854C12.1279 35.0967 12.7394 35.302 13.3552 35.302C13.971 35.302 14.5029 35.2542 14.9511 35.1591C15.3988 35.0628 15.8189 34.9193 16.211 34.7284C16.379 33.4456 16.8364 32.4607 17.5828 31.772C16.5189 31.6574 15.5624 31.4843 14.7128 31.2553C13.8638 31.0252 12.9863 30.6526 12.0813 30.1349C11.1757 29.6188 10.4244 28.9779 9.82713 28.2123C9.23003 27.4467 8.73983 26.4424 8.35749 25.1988C7.97481 23.9553 7.78357 22.5198 7.78357 20.8935C7.78357 18.5779 8.521 16.6075 9.99573 14.9806C9.30483 13.2397 9.37023 11.2887 10.1915 9.12633C10.7328 8.95374 11.5355 9.08333 12.5994 9.51393C13.6634 9.94403 14.4425 10.3134 14.9374 10.6188C15.4322 10.9241 15.8287 11.1833 16.1274 11.394C17.8636 10.8962 19.6554 10.6473 21.5033 10.6473C23.3511 10.6473 25.1432 10.8962 26.88 11.394L27.9438 10.7048C28.6714 10.2456 29.5305 9.82473 30.5192 9.44133C31.5085 9.05913 32.2651 8.95374 32.7875 9.12633C33.6275 11.2887 33.7021 13.2402 33.0114 14.9811C34.486 16.608 35.2234 18.579 35.2234 20.894C35.2234 22.5209 35.0317 23.9601 34.6494 25.2128C34.2665 26.4671 33.7725 27.4709 33.1658 28.2268C32.559 28.9833 31.8028 29.6193 30.8977 30.1354C29.9923 30.6526 29.115 31.0252 28.2656 31.2553C27.4162 31.4848 26.4597 31.658 25.3959 31.772C26.3664 32.6332 26.8518 33.9913 26.8518 35.8478V41.9032C26.8518 42.2472 26.9685 42.5343 27.2018 42.7633C27.435 42.9935 27.8035 43.0601 28.3076 42.9644C32.6382 41.4913 36.1707 38.8364 38.9052 34.9994C41.6398 31.1639 43.007 26.8445 43.007 22.0413C43.0063 18.0435 42.0444 14.3558 40.1221 10.9784Z" fill="#F2AB27"/>
</svg>
