<svg width="95" height="104" viewBox="0 0 95 104" fill="none" xmlns="http://www.w3.org/2000/svg">
<g filter="url(#filter0_d)">
<path fill-rule="evenodd" clip-rule="evenodd" d="M47.4999 16.9999C62.1354 16.9999 74 28.8644 74 43.4999C74 58.1353 62.1354 69.9999 47.4999 69.9999C32.8644 69.9999 21 58.1353 21 43.4999C21 28.8644 32.8644 16.9999 47.4999 16.9999Z" fill="#FF4361"/>
</g>
<path fill-rule="evenodd" clip-rule="evenodd" d="M41.9999 0.999936H52C68.5685 0.999936 82 14.4311 82 30.9999V40.9999C82 57.5682 68.5685 70.9998 52 70.9998H41.9999C25.4314 70.9998 11.9999 57.5682 11.9999 40.9999V30.9999C11.9999 14.4311 25.4314 0.999936 41.9999 0.999936Z" fill="#FF4361"/>
<path fill-rule="evenodd" clip-rule="evenodd" d="M41.9999 0.999936H52C68.5685 0.999936 82 14.4311 82 30.9999V40.9999C82 57.5682 68.5685 70.9998 52 70.9998H41.9999C25.4314 70.9998 11.9999 57.5682 11.9999 40.9999V30.9999C11.9999 14.4311 25.4314 0.999936 41.9999 0.999936Z" fill="url(#paint0_linear)"/>
<path fill-rule="evenodd" clip-rule="evenodd" d="M64.5441 31.8585C64.5498 31.9607 64.5424 32.0644 64.5168 32.1687L62.2346 41.3348C62.1194 41.7961 61.7072 42.1214 61.2334 42.1241L47.5399 42.1934C47.5382 42.1934 47.5364 42.1934 47.5346 42.1934H33.8411C33.3646 42.1934 32.9496 41.8671 32.8346 41.4031L30.5523 32.202C30.5259 32.0956 30.5184 31.9886 30.525 31.8838C29.6421 31.6047 29 30.7752 29 29.7977C29 28.5908 29.9772 27.6096 31.1785 27.6096C32.3798 27.6096 33.357 28.5908 33.357 29.7977C33.357 30.4768 33.047 31.0843 32.5616 31.4864L35.419 34.3768C36.1412 35.1074 37.1432 35.5268 38.1684 35.5268C39.3807 35.5268 40.5364 34.9483 41.2643 33.98L45.9602 27.7321C45.5658 27.3365 45.3214 26.7897 45.3214 26.1865C45.3214 24.98 46.2986 23.9983 47.4999 23.9983C48.7012 23.9983 49.6784 24.98 49.6784 26.1865C49.6784 26.7714 49.4472 27.302 49.0733 27.695C49.0745 27.6967 49.0761 27.6983 49.0773 27.6999L53.7391 33.9649C54.4668 34.9424 55.6266 35.5268 56.8423 35.5268C57.877 35.5268 58.85 35.1219 59.5814 34.3875L62.4568 31.4999C61.9612 31.0983 61.6429 30.4854 61.6429 29.7977C61.6429 28.5908 62.6202 27.6096 63.8215 27.6096C65.0227 27.6096 66 28.5908 66 29.7977C66 30.7488 65.3906 31.5585 64.5441 31.8585ZM62.0118 45.4569C62.0118 44.8821 61.5473 44.4155 60.9744 44.4155H34.1408C33.5679 44.4155 33.1034 44.8821 33.1034 45.4569V47.9569C33.1034 48.5327 33.5679 48.9988 34.1408 48.9988H60.9744C61.5473 48.9988 62.0118 48.5327 62.0118 47.9569V45.4569Z" fill="white"/>
<defs>
<filter id="filter0_d" x="1.14441e-05" y="8.99988" width="95" height="95" filterUnits="userSpaceOnUse" color-interpolation-filters="sRGB">
<feFlood flood-opacity="0" result="BackgroundImageFix"/>
<feColorMatrix in="SourceAlpha" type="matrix" values="0 0 0 0 0 0 0 0 0 0 0 0 0 0 0 0 0 0 127 0"/>
<feOffset dy="13"/>
<feGaussianBlur stdDeviation="10.5"/>
<feColorMatrix type="matrix" values="0 0 0 0 0.992157 0 0 0 0 0.345098 0 0 0 0 0.447059 0 0 0 0.3 0"/>
<feBlend mode="normal" in2="BackgroundImageFix" result="effect1_dropShadow"/>
<feBlend mode="normal" in="SourceGraphic" in2="effect1_dropShadow" result="shape"/>
</filter>
<linearGradient id="paint0_linear" x1="52.4132" y1="113.413" x2="124.413" y2="30.5868" gradientUnits="userSpaceOnUse">
<stop stop-color="#FF5858"/>
<stop offset="1" stop-color="#F857A6"/>
</linearGradient>
</defs>
</svg>
