<svg width="96" height="104" viewBox="0 0 96 104" fill="none" xmlns="http://www.w3.org/2000/svg">
<g filter="url(#filter0_d)">
<path fill-rule="evenodd" clip-rule="evenodd" d="M47.9596 16.9999C62.582 16.9999 74.4359 28.8644 74.4359 43.4999C74.4359 58.1353 62.582 69.9999 47.9596 69.9999C33.3372 69.9999 21.4834 58.1353 21.4834 43.4999C21.4834 28.8644 33.3372 16.9999 47.9596 16.9999Z" fill="#FF4361"/>
</g>
<path fill-rule="evenodd" clip-rule="evenodd" d="M42.4652 0.999936H52.4564C69.0101 0.999936 82.4295 14.4311 82.4295 30.9999V40.9999C82.4295 57.5682 69.0101 70.9998 52.4564 70.9998H42.4652C25.9116 70.9998 12.4922 57.5682 12.4922 40.9999V30.9999C12.4922 14.4311 25.9116 0.999936 42.4652 0.999936Z" fill="#FF4361"/>
<path fill-rule="evenodd" clip-rule="evenodd" d="M42.4652 0.999936H52.4564C69.0101 0.999936 82.4295 14.4311 82.4295 30.9999V40.9999C82.4295 57.5682 69.0101 70.9998 52.4564 70.9998H42.4652C25.9116 70.9998 12.4922 57.5682 12.4922 40.9999V30.9999C12.4922 14.4311 25.9116 0.999936 42.4652 0.999936Z" fill="url(#paint0_linear)"/>
<path fill-rule="evenodd" clip-rule="evenodd" d="M64.9886 31.8585C64.9943 31.9607 64.9869 32.0644 64.9614 32.1687L62.6811 41.3348C62.5661 41.7961 62.1543 42.1214 61.6809 42.1241L47.9996 42.1934C47.9979 42.1934 47.9962 42.1934 47.9944 42.1934H34.3131C33.8371 42.1934 33.4224 41.8671 33.3075 41.4031L31.0273 32.202C31.0009 32.0956 30.9934 31.9886 31.0001 31.8838C30.1179 31.6047 29.4764 30.7752 29.4764 29.7977C29.4764 28.5908 30.4527 27.6096 31.6529 27.6096C32.8531 27.6096 33.8294 28.5908 33.8294 29.7977C33.8294 30.4768 33.5197 31.0843 33.0348 31.4864L35.8896 34.3768C36.6112 35.1074 37.6123 35.5268 38.6366 35.5268C39.8478 35.5268 41.0025 34.9483 41.7297 33.98L46.4214 27.7321C46.0273 27.3365 45.7832 26.7897 45.7832 26.1865C45.7832 24.98 46.7595 23.9983 47.9597 23.9983C49.1599 23.9983 50.1363 24.98 50.1363 26.1865C50.1363 26.7714 49.9052 27.302 49.5317 27.695C49.5329 27.6967 49.5345 27.6983 49.5357 27.6999L54.1933 33.9649C54.9203 34.9424 56.0791 35.5268 57.2937 35.5268C58.3275 35.5268 59.2996 35.1219 60.0304 34.3875L62.9032 31.4999C62.4081 31.0983 62.09 30.4854 62.09 29.7977C62.09 28.5908 63.0664 27.6096 64.2666 27.6096C65.4668 27.6096 66.4432 28.5908 66.4432 29.7977C66.4432 30.7488 65.8344 31.5585 64.9886 31.8585ZM62.4586 45.4569C62.4586 44.8821 61.9945 44.4155 61.4222 44.4155H34.6126C34.0402 44.4155 33.5761 44.8821 33.5761 45.4569V47.9569C33.5761 48.5327 34.0402 48.9988 34.6126 48.9988H61.4222C61.9945 48.9988 62.4586 48.5327 62.4586 47.9569V45.4569Z" fill="white"/>
<defs>
<filter id="filter0_d" x="0.483418" y="9" width="94.9524" height="95" filterUnits="userSpaceOnUse" color-interpolation-filters="sRGB">
<feFlood flood-opacity="0" result="BackgroundImageFix"/>
<feColorMatrix in="SourceAlpha" type="matrix" values="0 0 0 0 0 0 0 0 0 0 0 0 0 0 0 0 0 0 127 0"/>
<feOffset dy="13"/>
<feGaussianBlur stdDeviation="10.5"/>
<feColorMatrix type="matrix" values="0 0 0 0 0.992157 0 0 0 0 0.345098 0 0 0 0 0.447059 0 0 0 0.3 0"/>
<feBlend mode="normal" in2="BackgroundImageFix" result="effect1_dropShadow"/>
<feBlend mode="normal" in="SourceGraphic" in2="effect1_dropShadow" result="shape"/>
</filter>
<linearGradient id="paint0_linear" x1="52.8693" y1="113.413" x2="124.878" y2="30.6507" gradientUnits="userSpaceOnUse">
<stop stop-color="#FF5858"/>
<stop offset="1" stop-color="#F857A6"/>
</linearGradient>
</defs>
</svg>
